<svg xmlns="http://www.w3.org/2000/svg" viewBox="0 0 512 512">
  <rect width="512" height="512" rx="96" fill="#ffffff"/>
  <path
    d="M116 246 256 108l88 86V136c0-11 9-20 20-20h12c11 0 20 9 20 20v98l25 24c8 8 8 20 0 28l-9 9c-8 8-20 8-28 0L256 169 128 295c-8 8-20 8-28 0l-9-9c-8-8-8-20 0-28Z"
    fill="#16a34a"
  />
  <path
    d="M164 255c0-11 9-20 20-20h14c11 0 20 9 20 20v109h76V255c0-11 9-20 20-20h14c11 0 20 9 20 20v129c0 18-14 32-32 32H196c-18 0-32-14-32-32V255Z"
    fill="#16a34a"
  />
</svg>
